<svg xmlns="http://www.w3.org/2000/svg" width="12.636" height="14.668" viewBox="0 0 12.636 14.668">
  <g id="maps-and-location" transform="translate(0 0)">
    <path id="Path_14" data-name="Path 14" d="M6.318,0A6.2,6.2,0,0,0,0,6.053a6.752,6.752,0,0,0,.98,3.33A13.2,13.2,0,0,0,3.1,12.1a20.143,20.143,0,0,0,3.06,2.525.31.31,0,0,0,.162.048.293.293,0,0,0,.162-.048A19.613,19.613,0,0,0,9.54,12.1a13.2,13.2,0,0,0,2.116-2.711,6.753,6.753,0,0,0,.98-3.33A6.2,6.2,0,0,0,6.318,0Zm4.821,9.083a12.623,12.623,0,0,1-2.017,2.582,20.114,20.114,0,0,1-2.8,2.341,19.936,19.936,0,0,1-2.8-2.333A12.675,12.675,0,0,1,1.5,9.089,6.148,6.148,0,0,1,.6,6.057,5.6,5.6,0,0,1,6.318.6a5.6,5.6,0,0,1,5.717,5.452,6.158,6.158,0,0,1-.9,3.03Zm0,0" transform="translate(0)" fill="#16b4c4"/>
    <path id="Path_15" data-name="Path 15" d="M58.695,50.5a4.695,4.695,0,1,0,4.695,4.695A4.7,4.7,0,0,0,58.695,50.5Zm0,8.789a4.094,4.094,0,1,1,4.094-4.094A4.1,4.1,0,0,1,58.695,59.289Zm0,0" transform="translate(-52.377 -48.982)" fill="#16b4c4"/>
    <path id="Path_16" data-name="Path 16" d="M155.5,261a.8.8,0,1,0,.8.8A.8.8,0,0,0,155.5,261Zm0,.992a.195.195,0,1,1,.138-.057A.2.2,0,0,1,155.5,261.992Zm0,0" transform="translate(-150.049 -253.155)" fill="#16b4c4"/>
    <path id="Path_17" data-name="Path 17" d="M241.9,261a.8.8,0,1,0,.8.8A.8.8,0,0,0,241.9,261Zm0,.992a.2.2,0,1,1,.138-.057A.2.2,0,0,1,241.9,261.992Zm0,0" transform="translate(-233.855 -253.155)" fill="#16b4c4"/>
    <path id="Path_18" data-name="Path 18" d="M120.327,111.136h-3.962l-.063-.382a.9.9,0,0,0-.9-.754H115.2a.3.3,0,0,0,0,.6h.207a.309.309,0,0,1,.3.255l.487,2.87a.9.9,0,0,0,.9.754h2.771a.3.3,0,0,0,0-.6h-2.771a.309.309,0,0,1-.3-.255l0-.024h2.51a.906.906,0,0,0,.866-.634l.454-1.44a.294.294,0,0,0-.045-.268A.309.309,0,0,0,120.327,111.136Zm-.739,1.65a.3.3,0,0,1-.292.213h-2.612l-.213-1.262h3.448Zm0,0" transform="translate(-111.445 -106.694)" fill="#16b4c4"/>
  </g>
</svg>
